<svg aria-hidden="true" style="position: absolute; width: 0; height: 0; overflow: hidden;" version="1.1" xmlns="http://www.w3.org/2000/svg" xmlns:xlink="http://www.w3.org/1999/xlink">
<defs>
<symbol id="icon-close" viewBox="0 0 20 20">
<path d="M10 8.586l-7.071-7.071-1.414 1.414 7.071 7.071-7.071 7.071 1.414 1.414 7.071-7.071 7.071 7.071 1.414-1.414-7.071-7.071 7.071-7.071-1.414-1.414-7.071 7.071z"></path>
</symbol>
<symbol id="icon-arrow-left2" viewBox="0 0 32 32">
<path d="M12.586 27.414l-10-10c-0.781-0.781-0.781-2.047 0-2.828l10-10c0.781-0.781 2.047-0.781 2.828 0s0.781 2.047 0 2.828l-6.586 6.586h19.172c1.105 0 2 0.895 2 2s-0.895 2-2 2h-19.172l6.586 6.586c0.39 0.39 0.586 0.902 0.586 1.414s-0.195 1.024-0.586 1.414c-0.781 0.781-2.047 0.781-2.828 0z"></path>
</symbol>
<symbol id="icon-alarm" viewBox="0 0 30 32">
<path fill="none" stroke="#afafaf" style="stroke: var(--color1, #afafaf)" stroke-linejoin="miter" stroke-linecap="butt" stroke-miterlimit="4" stroke-width="2.4615" d="M11.072 28.082c0.561 1.578 2.042 2.687 3.781 2.687s3.22-1.109 3.772-2.659l0.009-0.028"></path>
<path fill="none" stroke="#afafaf" style="stroke: var(--color1, #afafaf)" stroke-linejoin="miter" stroke-linecap="butt" stroke-miterlimit="4" stroke-width="2.4615" d="M29.622 22.713c-2.881-0.202-5.168-2.489-5.369-5.352l-0.001-0.018v-6.714c0-5.19-4.208-9.398-9.398-9.398-0 0-0.001 0-0.001 0h0c-0 0-0.001 0-0.001 0-5.19 0-9.398 4.208-9.398 9.398v6.713c-0.202 2.881-2.489 5.169-5.352 5.37l-0.018 0.001"></path>
</symbol>
<symbol id="icon-bubble-speak" viewBox="0 0 32 32">
<path fill="#afafaf" style="fill: var(--color1, #afafaf)" d="M29.283 19.161c-0.184-0.474-0.637-0.804-1.167-0.804-0.69 0-1.249 0.559-1.249 1.249 0 0.176 0.037 0.344 0.103 0.496l-0.003-0.008 1.467 3.641-4.372-1.927c-0.147-0.065-0.317-0.103-0.497-0.103s-0.351 0.038-0.505 0.106l0.008-0.003c-1.392 0.608-3.013 0.961-4.718 0.961-0.014 0-0.028-0-0.042-0h0.002c-6.692 0-11.188-5.24-11.188-10.133 0-5.588 5.019-10.133 11.188-10.133s11.188 4.545 11.188 10.133c-0.003 0.508-0.044 1.004-0.118 1.489l0.007-0.057c-0.014 0.070-0.022 0.15-0.022 0.233 0 0.691 0.56 1.251 1.251 1.251 0.643 0 1.172-0.485 1.243-1.108l0.001-0.006c0.083-0.54 0.132-1.165 0.133-1.8v-0.002c-0.016-3.564-1.573-6.761-4.038-8.962l-0.012-0.010c-2.509-2.274-5.854-3.666-9.524-3.666-0.037 0-0.074 0-0.111 0l0.006-0c-0.036-0-0.080-0.001-0.123-0.001-3.669 0-7.013 1.391-9.533 3.674l0.012-0.011c-2.21 1.98-3.687 4.74-3.996 7.844l-0.004 0.051c-2.796 1.805-4.629 4.891-4.667 8.408l-0 0.006c0 0.002 0 0.004 0 0.006 0 2.181 0.72 4.194 1.935 5.814l-0.018-0.025-1.828 4.516c-0.058 0.139-0.091 0.3-0.091 0.469 0 0.69 0.559 1.249 1.249 1.249 0.183 0 0.356-0.039 0.513-0.11l-0.008 0.003 5.264-2.32c1.23 0.47 2.652 0.743 4.138 0.743 0.011 0 0.022 0 0.033-0h-0.002c0.031 0 0.063 0 0.092 0 2.168-0.011 4.195-0.604 5.937-1.63l-0.055 0.030c1.559-0.912 2.832-2.154 3.755-3.637l0.026-0.046c0.99-0.18 1.861-0.43 2.695-0.755l-0.098 0.034 6.707 2.956c0.149 0.067 0.322 0.107 0.505 0.107 0.69 0 1.249-0.559 1.249-1.249 0-0.169-0.034-0.33-0.095-0.477l0.003 0.008zM11.187 27.812h-0.051c-1.32-0.002-2.575-0.276-3.713-0.77l0.061 0.023c-0.147-0.065-0.317-0.103-0.497-0.103s-0.351 0.038-0.505 0.106l0.008-0.003-2.933 1.291 0.944-2.336c0.058-0.139 0.091-0.3 0.091-0.468 0-0.311-0.113-0.595-0.3-0.813l0.001 0.002c-1.113-1.271-1.794-2.945-1.799-4.778v-0.001c0.018-2.096 0.901-3.982 2.308-5.322l0.003-0.003c0.529 2.685 1.847 5.002 3.699 6.762l0.005 0.005c2.373 2.265 5.553 3.705 9.066 3.847l0.027 0.001c-1.649 1.585-3.893 2.561-6.365 2.561-0.018 0-0.035-0-0.053-0h0.003zM20.12 13.812c0.012-0 0.026-0.001 0.041-0.001 0.691 0 1.251 0.56 1.251 1.251s-0.56 1.251-1.251 1.251c-0.014 0-0.029-0-0.043-0.001l0.002 0h-7.495c-0.673-0.023-1.21-0.574-1.21-1.25s0.537-1.227 1.208-1.25l0.002-0zM23.871 11.312h-11.245c-0.673-0.023-1.21-0.574-1.21-1.25s0.537-1.227 1.208-1.25l0.002-0h11.251c0.673 0.023 1.21 0.574 1.21 1.25s-0.537 1.227-1.208 1.25l-0.002 0z"></path>
</symbol>
<symbol id="icon-zoom" viewBox="0 0 32 32">
<path fill="none" stroke="#afafaf" style="stroke: var(--color1, #afafaf)" stroke-linejoin="miter" stroke-linecap="butt" stroke-miterlimit="4" stroke-width="2.5904" d="M26.644 13.322c0 7.358-5.965 13.322-13.322 13.322s-13.322-5.965-13.322-13.322c0-7.358 5.965-13.322 13.322-13.322s13.322 5.965 13.322 13.322z"></path>
<path fill="none" stroke="#afafaf" style="stroke: var(--color1, #afafaf)" stroke-linejoin="miter" stroke-linecap="butt" stroke-miterlimit="4" stroke-width="2.5904" d="M25.349 13.322c0 6.642-5.385 12.027-12.027 12.027s-12.027-5.385-12.027-12.027c0-6.642 5.385-12.027 12.027-12.027s12.027 5.385 12.027 12.027z"></path>
<path fill="none" stroke="#afafaf" style="stroke: var(--color1, #afafaf)" stroke-linejoin="miter" stroke-linecap="butt" stroke-miterlimit="4" stroke-width="2.5904" d="M31.084 31.084lNaNNaNclNaNNaNclNaNNaN"></path>
</symbol>
<symbol id="icon-zoom-mini" viewBox="0 0 32 32">
<path fill="none" opacity="0.5" stroke="#afafaf" style="stroke: var(--color1, #afafaf)" stroke-linejoin="miter" stroke-linecap="butt" stroke-miterlimit="4" stroke-width="3.0907" d="M26.491 13.245c0 7.315-5.93 13.245-13.245 13.245s-13.245-5.93-13.245-13.245c0-7.315 5.93-13.245 13.245-13.245s13.245 5.93 13.245 13.245z"></path>
<path fill="none" opacity="0.5" stroke="#afafaf" style="stroke: var(--color1, #afafaf)" stroke-linejoin="miter" stroke-linecap="butt" stroke-miterlimit="4" stroke-width="3.0907" d="M24.945 13.245c0 6.462-5.238 11.7-11.7 11.7s-11.7-5.238-11.7-11.7c0-6.462 5.238-11.7 11.7-11.7s11.7 5.238 11.7 11.7z"></path>
<path fill="none" opacity="0.5" stroke="#afafaf" style="stroke: var(--color1, #afafaf)" stroke-linejoin="miter" stroke-linecap="butt" stroke-miterlimit="4" stroke-width="3.0907" d="M30.907 30.907lNaNNaNclNaNNaNclNaNNaN"></path>
</symbol>
<symbol id="icon-e-remove" viewBox="0 0 32 32">
<path fill="none" stroke="#fff" style="stroke: var(--color2, #fff)" stroke-linejoin="round" stroke-linecap="round" stroke-miterlimit="10" stroke-width="3.3992" d="mNaNclNaNNaNclNaNNaNNaNNaNclNaNNaNclNaNNaN"></path>
</symbol>
<symbol id="icon-e-remove1" viewBox="0 0 32 32">
<path fill="none" stroke="#fff" style="stroke: var(--color2, #fff)" stroke-linejoin="round" stroke-linecap="round" stroke-miterlimit="10" stroke-width="3.3992" d="mNaNclNaNNaNclNaNNaNNaNNaNclNaNNaNclNaNNaN"></path>
</symbol>
<symbol id="icon-close" viewBox="0 0 32 32">
<path fill="#fff" style="fill: var(--color2, #fff)" d="M16 0c8.837 0 16 7.163 16 16s-7.163 16-16 16c-8.837 0-16-7.163-16-16s7.163-16 16-16z"></path>
<path fill="none" stroke="#afafaf" style="stroke: var(--color1, #afafaf)" stroke-linejoin="round" stroke-linecap="round" stroke-miterlimit="10" stroke-width="1.7778" d="mNaNclNaNNaNclNaNNaNNaNNaNclNaNNaNclNaNNaN"></path>
</symbol>
<symbol id="icon-close1" viewBox="0 0 20 20">
<path d="M10 8.586l-7.071-7.071-1.414 1.414 7.071 7.071-7.071 7.071 1.414 1.414 7.071-7.071 7.071 7.071 1.414-1.414-7.071-7.071 7.071-7.071-1.414-1.414-7.071 7.071z"></path>
</symbol>
<symbol id="icon-search" viewBox="0 0 32 32">
<path d="M31.008 27.231l-7.58-6.447c-0.784-0.705-1.622-1.029-2.299-0.998 1.789-2.096 2.87-4.815 2.87-7.787 0-6.627-5.373-12-12-12s-12 5.373-12 12 5.373 12 12 12c2.972 0 5.691-1.081 7.787-2.87-0.031 0.677 0.293 1.515 0.998 2.299l6.447 7.58c1.104 1.226 2.907 1.33 4.007 0.23s0.997-2.903-0.23-4.007zM12 20c-4.418 0-8-3.582-8-8s3.582-8 8-8 8 3.582 8 8-3.582 8-8 8z"></path>
</symbol>
<symbol id="icon-arrow-left2" viewBox="0 0 32 32">
<path d="M12.586 27.414l-10-10c-0.781-0.781-0.781-2.047 0-2.828l10-10c0.781-0.781 2.047-0.781 2.828 0s0.781 2.047 0 2.828l-6.586 6.586h19.172c1.105 0 2 0.895 2 2s-0.895 2-2 2h-19.172l6.586 6.586c0.39 0.39 0.586 0.902 0.586 1.414s-0.195 1.024-0.586 1.414c-0.781 0.781-2.047 0.781-2.828 0z"></path>
</symbol>
</defs>
</svg>
