<svg xmlns="http://www.w3.org/2000/svg" width="58" height="58"><defs><filter id="a" x="0" y="0" width="58" height="58" filterUnits="userSpaceOnUse"><feOffset dy="3"/><feGaussianBlur stdDeviation="3" result="b"/><feFlood flood-opacity=".161"/><feComposite operator="in" in2="b"/><feComposite in="SourceGraphic"/></filter><style>.a{fill:#fff}</style></defs><circle class="a" cx="20" cy="20" r="20" transform="translate(9 6)" style="filter:url(#a)"/><path class="a" d="m27.276 29.609 8-8a1.333 1.333 0 0 0 0-1.885l-1.333-1.333a1.333 1.333 0 0 0-1.885 0l-8 8a1.333 1.333 0 0 0-.251.347l-1.083 4.204 4.207-1.076a1.333 1.333 0 0 0 .345-.257ZM36.333 32.666H21.667a.667.667 0 0 0 0 1.333h14.666a.667.667 0 1 0 0-1.333Z"/></svg>